<?xml version="1.0" encoding="UTF-8" standalone="no"?>
<svg
   width="116.67774"
   zoomAndPan="magnify"
   viewBox="0 0 87.508307 100.92103"
   height="134.56139"
   preserveAspectRatio="xMidYMid meet"
   version="1.2"
   id="svg961"
   xmlns="http://www.w3.org/2000/svg"
   xmlns:svg="http://www.w3.org/2000/svg">
  <defs
     id="defs836">
    <clipPath
       id="075ba2ed9d">
      <path
         d="m 241,144 h 77 v 87 h -77 z m 0,0"
         id="path824" />
    </clipPath>
    <clipPath
       id="05f1093a15">
      <path
         d="m 292.37891,124.42578 50.24218,40.44531 -63.49218,78.8711 -50.24219,-40.44922 z m 0,0"
         id="path827" />
    </clipPath>
    <clipPath
       id="362ad3b78b">
      <path
         d="m 292.37891,124.42578 50.24218,40.44531 -63.49218,78.8711 -50.24219,-40.44922 z m 0,0"
         id="path830" />
    </clipPath>
    <clipPath
       id="ccff3f1b6e">
      <path
         d="m 292.34766,124.46484 50.19531,40.40625 -63.4375,78.79688 -50.19141,-40.40625 z m 0,0"
         id="path833" />
    </clipPath>
  </defs>
  <g
     id="fe996da5fd"
     transform="translate(-237.45556,-135.54931)">
    <rect
       x="0"
       width="375"
       y="0"
       height="375"
       style="fill:none;fill-opacity:1;stroke:none"
       id="rect838" />
    <g
       clip-rule="nonzero"
       clip-path="url(#075ba2ed9d)"
       id="g850"
       transform="translate(0.01844298,-1.618491)"
       style="fill:#0fa48b;fill-opacity:1">
      <g
         clip-rule="nonzero"
         clip-path="url(#05f1093a15)"
         id="g848"
         style="fill:#0fa48b;fill-opacity:1">
        <g
           clip-rule="nonzero"
           clip-path="url(#362ad3b78b)"
           id="g846"
           style="fill:#0fa48b;fill-opacity:1">
          <g
             clip-rule="nonzero"
             clip-path="url(#ccff3f1b6e)"
             id="g844"
             style="fill:#0fa48b;fill-opacity:1">
            <path
               id="path842"
               style="fill:#0fa48b;fill-opacity:1;fill-rule:nonzero;stroke:none;stroke-width:1.33333"
               d="m 423.28516,190.73242 c 0,0 -64.57748,11.71419 -91.10352,44.66211 -2.27282,2.82253 -4.12406,5.84594 -5.57422,8.99414 2.56328,-3.01258 5.67203,-5.50906 9.35156,-7.46289 5.21876,-2.76041 11.10482,-4.14648 17.64649,-4.14648 6.52604,0 12.39518,1.38607 17.60351,4.14648 5.21876,2.76563 9.31901,6.5931 12.29297,11.47852 2.96875,4.89062 4.45703,10.39648 4.45703,16.52148 0,6.125 -1.48828,11.63412 -4.45703,16.51953 -2.97396,4.89063 -7.07421,8.72006 -12.29297,11.48047 -5.20833,2.76563 -11.07747,4.14453 -17.60351,4.14453 -6.54167,0 -12.42773,-1.3789 -17.64649,-4.14453 -0.36482,-0.19336 -0.71056,-0.40554 -1.06445,-0.60937 1.18977,1.21712 2.45363,2.3846 3.8125,3.47851 18.47916,14.88022 45.52018,11.95768 60.40039,-6.52148 14.875,-18.48438 -0.95768,-67.31706 24.17774,-98.54102 z m -69.67969,56.52539 c -3.125,0 -5.95833,0.74024 -8.5,2.20899 -2.53125,1.47396 -4.53125,3.55143 -6,6.22851 -1.47396,2.68229 -2.20899,5.76172 -2.20899,9.23047 0,3.47396 0.73503,6.55143 2.20899,9.22852 1.46875,2.68229 3.46875,4.75976 6,6.22851 2.54167,1.47396 5.375,2.20899 8.5,2.20899 3.10937,0 5.92773,-0.73503 8.45898,-2.20899 2.54167,-1.46875 4.54558,-3.54622 6.01953,-6.22851 1.46876,-2.67709 2.20899,-5.75456 2.20899,-9.22852 0,-3.46875 -0.74023,-6.54818 -2.20899,-9.23047 -1.47395,-2.67708 -3.47786,-4.75455 -6.01953,-6.22851 -2.53125,-1.46875 -5.34961,-2.20899 -8.45898,-2.20899 z"
               transform="matrix(0.74999999,0,0,0.74999999,-0.01844298,1.618491)" />
          </g>
        </g>
      </g>
    </g>
    <g
       style="fill:#ffffff;fill-opacity:1"
       id="g874" />
    <g
       style="fill:#ffffff;fill-opacity:1"
       id="g880">
      <g
         transform="translate(237.17304,221.88151)"
         id="g878" />
    </g>
  </g>
</svg>
